<svg id="svg" version="1.1" width="400" height="411.52263374485597" viewBox="0 0 400 411.52263374485597" xmlns="http://www.w3.org/2000/svg" xmlns:xlink="http://www.w3.org/1999/xlink" ><g id="svgg"><path id="path0" d="M0.000 205.600 L 0.000 411.200 102.950 411.200 L 205.901 411.200 211.850 408.155 C 215.123 406.480,220.500 403.713,223.800 402.005 C 227.100 400.297,234.840 396.334,241.000 393.199 C 247.160 390.064,254.540 386.286,257.400 384.802 C 262.509 382.152,269.937 378.341,288.200 368.999 C 293.260 366.410,299.920 362.992,303.000 361.403 C 322.578 351.302,336.442 344.379,336.733 344.559 C 337.166 344.826,338.696 343.724,343.063 340.000 C 344.998 338.350,350.275 333.867,354.790 330.038 C 359.306 326.209,363.900 322.311,365.000 321.376 C 366.100 320.441,370.240 316.932,374.200 313.580 C 378.160 310.227,382.300 306.718,383.400 305.782 C 384.500 304.845,388.010 301.878,391.200 299.187 C 394.390 296.497,397.675 293.709,398.500 292.993 L 400.000 291.691 400.000 145.846 L 400.000 0.000 200.000 0.000 L 0.000 0.000 0.000 205.600 " stroke="none" fill="#ffffff" fill-rule="evenodd"></path><path id="path1" d="M337.067 345.467 C 336.920 345.613,336.843 360.508,336.896 378.567 L 336.993 411.400 337.196 378.600 L 337.400 345.800 368.800 345.596 L 400.200 345.393 368.767 345.296 C 351.478 345.243,337.213 345.320,337.067 345.467 " stroke="none" fill="#59aa9a" fill-rule="evenodd"></path><path id="path2" d="M337.467 345.867 C 337.320 346.013,337.200 360.773,337.200 378.667 L 337.200 411.200 368.600 411.200 L 400.000 411.200 400.000 378.400 L 400.000 345.600 368.867 345.600 C 351.743 345.600,337.613 345.720,337.467 345.867 " stroke="none" fill="#01a3f0" fill-rule="evenodd"></path><path id="path3" d="M399.133 292.306 C 399.060 292.474,395.940 295.192,392.200 298.345 C 388.460 301.499,384.500 304.845,383.400 305.782 C 382.300 306.718,378.160 310.227,374.200 313.580 C 370.240 316.932,366.100 320.441,365.000 321.378 C 358.071 327.276,345.462 337.946,341.814 341.000 C 339.449 342.980,337.263 344.838,336.957 345.129 C 336.488 345.573,336.415 350.879,336.497 378.529 L 336.593 411.400 336.797 378.400 L 337.000 345.400 368.500 345.298 L 400.000 345.195 400.000 318.598 C 400.000 295.018,399.856 290.648,399.133 292.306 " stroke="none" fill="#7eb900" fill-rule="evenodd"></path><path id="path4" d="M326.200 349.532 C 316.910 354.278,304.965 360.395,287.400 369.403 C 283.440 371.434,276.240 375.121,271.400 377.598 C 266.560 380.075,260.440 383.225,257.800 384.598 C 255.160 385.971,247.420 389.934,240.600 393.403 C 233.780 396.873,226.580 400.561,224.600 401.600 C 222.620 402.639,217.675 405.179,213.610 407.244 L 206.221 411.000 271.176 411.101 C 306.901 411.157,336.187 411.146,336.256 411.077 C 336.470 410.864,336.613 344.399,336.400 344.412 C 336.290 344.419,331.700 346.723,326.200 349.532 " stroke="none" fill="#ffb801" fill-rule="evenodd"></path></g></svg>